<svg xmlns="http://www.w3.org/2000/svg" viewBox="0 0 640 400" width="640" height="400">
  <defs>
    <linearGradient id="bg" x1="0%" y1="0%" x2="100%" y2="100%">
      <stop offset="0%" stop-color="#047857" stop-opacity="0.92"/>
      <stop offset="100%" stop-color="#111827"/>
    </linearGradient>
    <filter id="glow" x="-20%" y="-20%" width="140%" height="140%">
      <feGaussianBlur stdDeviation="16" result="blur"/>
      <feComposite in="SourceGraphic" in2="blur" operator="over"/>
    </filter>
  </defs>
  <rect width="640" height="400" fill="url(#bg)"/>
  <circle cx="540" cy="80" r="140" fill="#ffffff" fill-opacity="0.06"/>
  <circle cx="100" cy="340" r="120" fill="#ffffff" fill-opacity="0.04"/>
  
  <g transform="translate(60, 48)">
    <rect x="0" y="0" width="130" height="28" rx="14" fill="#ffffff" fill-opacity="0.2"/>
    <text x="65" y="19" fill="#ffffff" font-family="-apple-system, BlinkMacSystemFont, 'Segoe UI', Roboto, sans-serif" font-size="13" font-weight="700" text-anchor="middle" letter-spacing="0.5">TRÀ &amp; GIẢI KHÁT</text>
  </g>

  <g transform="translate(320, 190) scale(1.4)" filter="url(#glow)">
    <g transform="translate(-40, -40)">
      <path d="M30 24 L50 24 L48 64 C48 68, 45 70, 40 70 C35 70, 32 68, 32 64 Z" fill="#D1FAE5" stroke="#ffffff" stroke-width="3"/>
      <ellipse cx="40" cy="24" rx="10" ry="3" fill="#A7F3D0"/>
      <line x1="40" y1="24" x2="48" y2="8" stroke="#FBBF24" stroke-width="3" stroke-linecap="round"/>
      <path d="M26 38 Q22 42 26 48" stroke="#34D399" stroke-width="2" fill="none"/>
    </g>
  </g>

  <g transform="translate(60, 310)">
    <text x="0" y="0" fill="#ffffff" font-family="-apple-system, BlinkMacSystemFont, 'Segoe UI', Roboto, sans-serif" font-size="28" font-weight="800">Phúc Long Coffee &amp; Tea</text>
    <text x="0" y="32" fill="#E5E7EB" font-family="-apple-system, BlinkMacSystemFont, 'Segoe UI', Roboto, sans-serif" font-size="16" font-weight="500">Trà Ô Long Mật Ong &amp; Trà Đào Cam Sả</text>
  </g>
  <rect x="0" y="394" width="640" height="6" fill="#047857"/>
</svg>